<mxfile host="app.diagrams.net" modified="2021-10-09T14:58:45.619Z" agent="5.0 (Macintosh; Intel Mac OS X 10_14_3) AppleWebKit/537.36 (KHTML, like Gecko) Chrome/94.0.4606.71 Safari/537.36" etag="PhifybMyfIwM9TVfq6zM" version="15.4.3" type="github">
  <diagram id="Ry9CxRdUc--99yD2-6FV" name="Page-1">
    <mxGraphModel dx="946" dy="484" grid="0" gridSize="10" guides="1" tooltips="1" connect="1" arrows="1" fold="1" page="1" pageScale="1" pageWidth="300" pageHeight="200" background="#EFF1F3" math="0" shadow="0">
      <root>
        <mxCell id="0" />
        <mxCell id="1" parent="0" />
        <mxCell id="r1W4fXb6D5SB3DHGlzW5-1" value="&lt;font style=&quot;font-size: 36px&quot;&gt;全场包邮&lt;/font&gt;" style="rounded=1;whiteSpace=wrap;html=1;strokeColor=none;fillColor=#FDD276;" parent="1" vertex="1">
          <mxGeometry x="42" y="40" width="222" height="122" as="geometry" />
        </mxCell>
        <mxCell id="r1W4fXb6D5SB3DHGlzW5-2" value="&lt;font style=&quot;font-size: 36px&quot;&gt;爆款单品&lt;/font&gt;" style="rounded=1;whiteSpace=wrap;html=1;strokeColor=none;fillColor=#9AC7BF;" parent="1" vertex="1">
          <mxGeometry x="342" y="38" width="222" height="122" as="geometry" />
        </mxCell>
      </root>
    </mxGraphModel>
  </diagram>
</mxfile>
